<svg viewBox="0 0 66 24" fill="none" xmlns="http://www.w3.org/2000/svg">
  <path d="M44.2207 0.0421989H49.954C49.9644 0.0421977 49.9745 0.0461762 49.9825 0.0533692C50.0317 0.0963956 50.0867 0.170036 50.1474 0.274292C50.8683 1.50985 51.4949 2.57724 52.3273 3.90898C53.1195 5.17619 53.8137 6.30542 54.4099 7.29668C54.5103 7.463 54.5862 7.61007 54.6374 7.73791C54.6393 7.7427 54.6425 7.74687 54.6467 7.74995C54.6508 7.75303 54.6557 7.75489 54.6609 7.75534C54.666 7.75579 54.6712 7.75481 54.6758 7.7525C54.6804 7.75019 54.6843 7.74664 54.687 7.74226C56.257 5.16502 57.7489 2.86828 59.5191 0.0825357C59.5244 0.0741812 59.5317 0.0673005 59.5404 0.0625283C59.5491 0.0577561 59.5588 0.0552465 59.5687 0.0552309L65.2121 0C65.2175 5.30403e-05 65.2226 0.00155676 65.2272 0.00434872C65.2317 0.00714068 65.2353 0.0111144 65.2378 0.0158415C65.2402 0.0205686 65.2413 0.0258693 65.2409 0.0311706C65.2406 0.036472 65.2387 0.0415728 65.2357 0.0459222C64.3175 1.30155 63.4105 2.61468 62.5147 3.98531C60.849 6.53255 59.2193 8.97864 57.6255 11.3236C57.619 11.3331 57.6163 11.3447 57.618 11.3561C57.6198 11.3676 57.6258 11.3779 57.6349 11.385C57.6801 11.421 57.7173 11.4384 57.7582 11.4998C58.9774 13.3317 60.3131 15.3343 61.8825 17.7459C63.3114 19.9419 64.0868 21.1311 64.2086 21.3135C64.4768 21.7157 65.0721 22.5892 65.9944 23.9342C65.9977 23.9392 65.9996 23.945 66 23.9511C66.0003 23.9571 65.999 23.9631 65.9962 23.9684C65.9934 23.9737 65.9892 23.9782 65.9841 23.9814C65.979 23.9845 65.9731 23.9862 65.9671 23.9863H60.3118C60.3023 23.9864 60.2929 23.9843 60.2842 23.9803C60.2756 23.9764 60.2679 23.9706 60.2616 23.9634C60.1976 23.8902 60.1449 23.8213 60.1036 23.7567C58.6201 21.4366 56.9105 18.75 54.9746 15.6967C54.9147 15.602 54.8147 15.4355 54.6746 15.1972C54.6705 15.1904 54.6647 15.1848 54.6577 15.181C54.6507 15.1773 54.6428 15.1756 54.6348 15.176C54.6269 15.1765 54.6193 15.1791 54.6127 15.1836C54.6062 15.1881 54.601 15.1943 54.5977 15.2015C54.5663 15.2714 54.5324 15.3368 54.4961 15.3976C54.1048 16.0542 53.6449 16.8036 53.1164 17.646C52.3651 18.8437 51.0441 20.9437 49.1532 23.946C49.1428 23.9625 49.1283 23.9762 49.1112 23.9856C49.0941 23.995 49.0748 24 49.0553 24H43.516C43.513 24 43.5102 23.9991 43.5077 23.9976C43.5051 23.996 43.5031 23.9938 43.5018 23.9912C43.5004 23.9886 43.4998 23.9857 43.5 23.9827C43.5002 23.9798 43.5013 23.977 43.503 23.9746C43.7422 23.6283 44.1217 23.0495 44.6416 22.2382C44.9155 21.8104 46.2452 19.7855 48.6307 16.1634C49.7204 14.5081 50.5108 13.3191 51.0022 12.5964C51.2724 12.1984 51.509 11.8579 51.7119 11.5749C51.7157 11.5697 51.7179 11.5635 51.7181 11.5571C51.7183 11.5507 51.7166 11.5443 51.7131 11.5389C51.3214 10.9258 50.9474 10.3613 50.5912 9.84537C50.2156 9.30093 49.8417 8.73724 49.4693 8.15432C48.2886 6.30625 46.9863 4.37503 45.6674 2.30294C45.2289 1.61493 44.7411 0.871903 44.204 0.0738477C44.202 0.0707862 44.2008 0.067247 44.2007 0.0635974C44.2005 0.0599477 44.2013 0.0563206 44.203 0.0530918C44.2047 0.049863 44.2073 0.0471501 44.2104 0.0452347C44.2135 0.0433194 44.2171 0.0422714 44.2207 0.0421989Z" fill="#242122"/>
  <path d="M16.0514 15.1388C16.0543 15.142 16.0582 15.1443 16.0625 15.1454C16.0667 15.1464 16.0712 15.1461 16.0754 15.1446C16.0795 15.143 16.083 15.1403 16.0856 15.1367C16.0881 15.1331 16.0895 15.1289 16.0895 15.1245C16.0491 11.4679 16.0361 7.55613 16.0507 3.38932C16.0524 2.87831 16.0418 1.81485 16.0188 0.198932C16.0182 0.147956 15.9944 0.090763 15.9957 0.0484898C15.996 0.0378216 16.0006 0.027699 16.0084 0.0202708C16.0162 0.0128426 16.0267 0.00869344 16.0376 0.00870327H20.9737C20.9807 0.00870327 20.9874 0.0114537 20.9923 0.0163503C20.9972 0.0212469 21 0.0278883 21 0.0348131C20.9668 6.21106 20.9906 12.8803 20.9725 19.5539C20.9691 20.8287 20.9764 22.291 20.9944 23.9409C20.9945 23.9461 20.9935 23.9513 20.9916 23.9561C20.9896 23.9609 20.9867 23.9653 20.9831 23.969C20.9794 23.9727 20.975 23.9757 20.9702 23.9777C20.9654 23.9797 20.9602 23.9807 20.955 23.9807L16.9346 24C16.9157 24 16.8969 23.9958 16.8796 23.9876C16.8387 23.9681 16.7832 23.9123 16.7132 23.8203C15.7082 22.4958 14.1708 20.4922 12.1011 17.8095C11.5494 17.0945 10.8563 16.149 10.2169 15.3303C8.93167 13.6853 8.02755 12.5309 7.5046 11.867C7.09508 11.3468 6.59299 10.6682 5.99831 9.83101C5.70055 9.41139 5.34025 8.96441 5.00058 8.53111C4.99741 8.52721 4.99309 8.52434 4.98824 8.52291C4.98338 8.52149 4.97822 8.52156 4.97347 8.52314C4.96872 8.52471 4.96464 8.5277 4.96176 8.53169C4.95888 8.53568 4.95735 8.54047 4.9574 8.54541V23.9652C4.9574 23.9724 4.9545 23.9794 4.94934 23.9845C4.94418 23.9897 4.93718 23.9925 4.92988 23.9925H0.0300247C0.0220613 23.9925 0.0144276 23.9895 0.00879666 23.984C0.0031657 23.9785 0 23.9711 0 23.9633V0.0410296C0 0.0301478 0.00435284 0.0197118 0.0120954 0.0120172C0.019838 0.00432256 0.0303458 0 0.0412954 0H4.44822C4.47257 1.89396e-05 4.49662 0.00524788 4.51875 0.0153315C4.54088 0.0254152 4.56056 0.0401166 4.57646 0.0584362C4.71533 0.217168 4.78789 0.300678 4.79415 0.308967C7.16911 3.40196 8.3593 4.9613 8.36472 4.987C8.36722 4.99819 9.38039 6.31985 11.4042 8.95198C12.3771 10.2181 13.4892 11.6933 14.7402 13.3776C15.1364 13.911 15.4882 14.3911 15.7955 14.818C15.8677 14.9179 15.9529 15.0248 16.0514 15.1388Z" fill="#242122"/>
  <g transform="translate(25.5024 0) scale(0.9998)">
    <path d="M7.80647 15.4768C7.77856 15.4955 7.74458 15.5034 7.71123 15.4987C7.67789 15.494 7.64759 15.4771 7.62629 15.4514C7.57123 15.3849 7.51784 15.3071 7.46612 15.2179C6.88427 14.2086 6.12161 12.6427 5.5823 11.6161C4.975 10.4594 4.52473 9.5936 4.23151 9.01857C3.07155 6.74613 2.01607 4.74924 0.783543 2.34925C0.577704 1.94863 0.29054 1.44461 0.0584233 0.940583C0.0146277 0.845846 -0.0166567 0.719531 0.00962067 0.611792C0.073437 0.348015 0.244865 0.0501835 0.540798 0.0316077C0.753519 0.0179854 1.31139 0.0117933 2.21441 0.0130317C8.13641 0.0212876 12.2728 0.0169533 14.6236 2.87194e-05C14.908 -0.00203526 15.146 0.10715 15.3374 0.327582C15.5871 0.614888 15.517 0.817982 15.3431 1.16473C13.751 4.33541 12.6017 6.59897 11.8951 7.95542C10.4728 10.6865 9.30721 12.9032 8.39835 14.6055C8.22859 14.923 8.10616 15.136 8.03109 15.2446C7.96101 15.3453 7.88614 15.4227 7.80647 15.4768Z" fill="#D6AB65"/>
  </g>
  <g transform="translate(27.0006 16.5)">
    <path d="M0.803427 0.0206697C1.42122 0.00953252 1.9924 0.0169578 2.70932 0.0250013C2.788 0.0262388 5.83152 0.0184012 11.8399 0.00148912C12.0883 0.000870382 12.4235 -0.0207847 12.6288 0.123999C12.879 0.300545 13.0027 0.550514 13 0.873906C12.9917 1.95339 12.9848 3.04649 12.9793 4.1532C12.9754 4.94559 12.9675 5.66745 12.9557 6.31877C12.9526 6.50068 12.9028 6.64237 12.8064 6.74384C12.5657 6.99876 12.3881 6.99196 12.0075 6.99072C8.4152 6.97711 4.53084 6.99505 0.662409 7C0.439367 7 0.248769 6.82428 0.122496 6.63742C0.0630969 6.54915 0.0306494 6.41901 0.0251422 6.247C0.0113741 5.81347 0.00547064 5.47131 0.00743751 5.22052C0.0192387 3.5883 0.016886 2.1586 0.000364285 0.931447C-0.00356945 0.63363 0.0243554 0.436667 0.0841481 0.340556C0.268247 0.04542 0.439951 0.0274758 0.803427 0.0206697Z" fill="#D6AB65"/>
  </g>
</svg>
